HIERARCHY
ROOT Hips
{
	OFFSET -3.958830 18.904000 13.208200
	CHANNELS 6 Xposition Yposition Zposition Zrotation Yrotation Xrotation 
	JOINT LHipJoint
	{
		OFFSET 0.000000 0.000000 0.000000
		CHANNELS 3 Zrotation Yrotation Xrotation
		JOINT LeftUpLeg
		{
			OFFSET 1.800000 -1.400000 0.085000
			CHANNELS 3 Zrotation Yrotation Xrotation
			JOINT LeftLeg
			{
				OFFSET 2.215000 -6.000000 0.000000
				CHANNELS 3 Zrotation Yrotation Xrotation
				JOINT LeftFoot
				{
					OFFSET 2.500000 -6.900000 0.000000
					CHANNELS 3 Zrotation Yrotation Xrotation
					JOINT LeftToeBase
					{
						OFFSET 0.200000 -0.500000 1.950000
						CHANNELS 3 Zrotation Yrotation Xrotation
						End Site
						{
							OFFSET 0.000000 0.000000 0.000000
						}
					}
				}
			}
		}
	}
	JOINT RHipJoint
	{
		OFFSET 0.000000 0.000000 0.000000
		CHANNELS 3 Zrotation Yrotation Xrotation
		JOINT RightUpLeg
		{
			OFFSET -1.800000 -1.400000 0.085000
			CHANNELS 3 Zrotation Yrotation Xrotation
			JOINT RightLeg
			{
				OFFSET -2.215000 -6.000000 0.000000
				CHANNELS 3 Zrotation Yrotation Xrotation
				JOINT RightFoot
				{
					OFFSET -2.500000 -6.900000 0.000000
					CHANNELS 3 Zrotation Yrotation Xrotation
					JOINT RightToeBase
					{
						OFFSET -0.200000 -0.500000 1.950000
						CHANNELS 3 Zrotation Yrotation Xrotation
						End Site
						{
							OFFSET 0.000000 0.000000 0.000000
						}
					}
				}
			}
		}
	}
	JOINT LowerBack
	{
		OFFSET 0.000000 0.000000 0.000000
		CHANNELS 3 Zrotation Yrotation Xrotation
		JOINT Spine
		{
			OFFSET -0.087000 1.940000 -0.288900
			CHANNELS 3 Zrotation Yrotation Xrotation
			JOINT Spine1
			{
				OFFSET 0.000000 1.950000 0.060000
				CHANNELS 3 Zrotation Yrotation Xrotation
				JOINT Neck
				{
					OFFSET 0.000000 0.000000 0.000000
					CHANNELS 3 Zrotation Yrotation Xrotation
					JOINT Neck1
					{
						OFFSET 0.000000 1.600000 0.340000
						CHANNELS 3 Zrotation Yrotation Xrotation
						JOINT Head
						{
							OFFSET 0.000000 1.667000 -0.240000
							CHANNELS 3 Zrotation Yrotation Xrotation
							End Site
							{
								OFFSET 0.000000 0.000000 0.000000
							}
						}
					}
				}
				JOINT LeftShoulder
				{
					OFFSET 0.000000 0.000000 0.000000
					CHANNELS 3 Zrotation Yrotation Xrotation
					JOINT LeftArm
					{
						OFFSET 2.700000 1.550000 -0.730000
						CHANNELS 3 Zrotation Yrotation Xrotation
						JOINT LeftForeArm
						{
							OFFSET 5.450000 0.000000 0.000000
							CHANNELS 3 Zrotation Yrotation Xrotation
							JOINT LeftHand
							{
								OFFSET 3.450000 0.000000 0.000000
								CHANNELS 3 Zrotation Yrotation Xrotation
								JOINT LeftHandIndex1
								{
									OFFSET 0.750000 0.000000 0.000000
									CHANNELS 3 Zrotation Yrotation Xrotation
									End Site
									{
										OFFSET 0.000000 0.000000 0.000000
									}
								}
							}
						}
					}
				}
				JOINT RightShoulder
				{
					OFFSET 0.000000 0.000000 0.000000
					CHANNELS 3 Zrotation Yrotation Xrotation
					JOINT RightArm
					{
						OFFSET -2.700000 1.550000 -0.730000
						CHANNELS 3 Zrotation Yrotation Xrotation
						JOINT RightForeArm
						{
							OFFSET -5.450000 0.000000 0.000000
							CHANNELS 3 Zrotation Yrotation Xrotation
							JOINT RightHand
							{
								OFFSET -3.450000 0.000000 0.000000
								CHANNELS 3 Zrotation Yrotation Xrotation
								JOINT RightHandIndex1
								{
									OFFSET -0.750000 0.000000 0.000000
									CHANNELS 3 Zrotation Yrotation Xrotation
									End Site
									{
										OFFSET 0.000000 0.000000 0.000000
									}
								}
							}
						}
					}
				}
			}
		}
	}
}
MOTION
Frames: 10
Frame Time: 0.016667
0.932560 13.056910 -2.140710 -68.939559 18.492923 -44.794571 -15.486921 11.172804 5.063572 6.777342 -6.828795 -41.402871 -27.355138 12.610822 22.118002 0.479923 7.019286 2.072553 0.094560 -0.280690 0.166020 18.362515 -8.486576 4.209314 3.133601 14.752912 -36.384472 -18.903931 4.483583 61.282281 -1.334021 -8.650474 1.296717 -0.216480 0.217040 0.272370 -3.295468 -2.258299 -9.428912 9.418376 1.469424 47.811075 -6.128258 6.640606 7.400623 4.305592 1.143063 -15.455133 -1.178556 0.285759 41.189344 3.138020 -1.443100 4.887150 -19.814604 -22.810665 9.006708 -9.154605 -4.300514 -0.774438 7.428821 -3.629973 -0.769706 -3.796759 3.094262 0.360080 0.027920 0.007570 0.128900 10.909474 26.051286 10.434648 -1.392706 -3.533532 -14.572780 -116.082091 34.306684 -59.812310 2.386899 -1.820002 -0.096440 -0.056060 0.012740 -0.049730 
0.938160 13.106990 -2.089190 -70.318097 20.514436 -44.786758 -15.569261 11.540240 5.106996 4.385983 -7.835332 -40.415629 -26.450627 11.425127 20.659203 0.353566 6.460652 2.223440 0.172940 -0.247290 0.281860 18.215290 -8.758342 3.846007 5.004147 12.214463 -33.666630 -27.429259 8.515552 50.445232 -1.208009 -7.698049 1.530525 -0.204250 0.127620 0.332480 -2.971339 -2.699326 -9.214956 6.915253 3.040988 46.044662 -3.678074 7.233946 7.799362 4.162071 2.322116 -14.997161 1.067813 -0.642894 40.972413 1.702460 -0.545660 3.299720 -19.593805 -22.838290 8.752428 -8.996732 -6.386756 -0.638948 7.892303 -2.952967 -0.864391 -3.797820 3.183768 0.393650 -0.009600 0.050840 0.099690 10.935249 25.526494 10.183998 -1.573786 -2.738391 -14.339294 -114.953282 34.103775 -58.130361 2.392097 -1.846147 -0.055710 -0.137780 -0.008970 -0.095180 
0.961240 13.142850 -2.032090 -71.963872 22.918351 -44.838970 -15.634090 11.915701 5.242610 1.870620 -9.206084 -39.566311 -24.789013 10.310196 20.020778 0.197360 5.937940 2.351338 0.251330 -0.232350 0.407370 18.066364 -9.171073 3.294407 3.885291 8.873772 -31.332676 -30.044646 7.756312 39.556185 -0.917316 -6.249442 1.901691 -0.195030 0.036740 0.385350 -2.665984 -3.042948 -8.930401 4.601846 4.036748 43.844474 -1.546570 7.341009 8.693222 4.161757 3.623702 -14.637695 3.593564 -1.567585 40.189306 0.495570 0.195490 1.747400 -19.164834 -22.958561 8.572069 -9.081837 -8.249523 -0.446135 8.087243 -2.507565 -0.972616 -3.789756 3.310333 0.431380 -0.057400 0.075180 0.060790 10.431751 24.796163 9.990044 -1.567429 -2.054005 -13.971737 -114.760564 34.559705 -58.678984 2.385088 -1.878709 -0.027870 -0.227010 -0.016010 -0.151580 
0.955030 13.160970 -1.986320 -74.343490 25.867311 -43.788778 -15.713240 11.982043 5.619723 -0.002282 -11.343090 -41.518237 -23.711843 9.755049 20.840727 0.100415 5.763666 2.395381 0.290260 -0.223430 0.463510 17.969585 -9.388310 2.775516 1.571978 5.728436 -31.080108 -27.254137 4.631955 28.975702 -0.497166 -4.409275 2.458296 -0.167040 0.036320 0.421530 -2.350946 -3.336106 -8.743388 2.431928 4.412285 40.154220 0.981932 6.825480 9.756707 4.114566 4.145147 -13.845594 4.774566 -2.135083 38.242594 -1.030410 0.684710 0.834890 -18.011861 -22.255687 8.064634 -10.158624 -10.926393 0.092633 8.243912 -2.262740 -1.066687 -3.847636 3.389028 0.412450 -0.039810 0.048870 0.045980 9.415713 23.577631 9.357694 -1.611222 -0.857805 -13.877586 -111.041534 33.737841 -53.833125 2.347709 -1.921262 -0.027290 -0.254160 -0.001290 -0.174870 
0.947330 13.165760 -1.934880 -75.356690 27.595219 -42.206219 -15.777275 12.022135 5.767059 -1.378127 -12.374745 -42.314671 -22.105043 8.575437 19.253695 -0.048379 5.217123 2.589313 0.305740 -0.207530 0.487910 17.899141 -9.453761 2.533037 -1.498725 4.325521 -32.108302 -21.836792 2.356784 24.471545 -0.229752 -3.347050 2.797718 -0.129110 0.058550 0.435600 -2.092500 -3.535802 -8.593334 0.353737 5.278884 36.746336 2.958874 6.812616 10.028912 4.171345 4.541096 -12.981863 5.711472 -2.490212 36.201280 -2.819640 1.392220 0.646790 -17.912147 -21.356384 7.371311 -10.838652 -12.984724 0.410864 9.063341 -1.904799 -1.141744 -3.923255 3.425628 0.364280 0.004980 0.011250 0.039230 9.310558 22.530132 8.710900 -2.713326 0.107852 -13.413454 -107.865298 32.974385 -49.416796 2.323719 -1.962087 -0.036420 -0.258410 0.003910 -0.183450 
0.923520 13.194140 -1.924060 -77.721172 29.260845 -42.130068 -15.781304 12.017042 5.816573 -1.755564 -12.804008 -42.353123 -21.648746 7.659017 17.233337 -0.130640 4.821381 2.754207 0.326870 -0.164700 0.496590 17.889721 -9.412618 2.530637 -3.704387 4.155227 -33.945110 -16.343800 0.839712 26.200606 -0.152090 -3.112536 2.888915 -0.093280 0.070640 0.435940 -2.032587 -3.658148 -8.560142 0.181821 5.075478 36.006535 3.500788 6.451651 9.362760 4.209024 4.494754 -12.450083 5.711527 -2.432493 34.648716 -3.938110 2.067960 -0.690230 -18.205387 -21.042333 6.767772 -10.754727 -14.616319 0.101150 11.588440 -1.986194 -1.327354 -3.956223 3.402080 0.356200 0.033120 0.013230 0.055640 9.599367 22.059325 8.396869 -3.150652 0.057691 -13.364385 -107.234106 31.918878 -47.402328 2.297756 -1.994562 -0.044290 -0.235090 -0.020400 -0.184410 
0.940240 13.249500 -1.911720 -79.390695 30.895756 -43.750955 -15.780664 12.356301 5.588631 -4.481793 -12.190515 -39.164051 -18.296062 6.146100 14.140654 -0.242651 3.894102 3.083916 0.296330 -0.146250 0.455310 17.837994 -9.438673 2.618839 -3.787345 4.309241 -34.203426 -14.901939 0.563485 29.800516 -0.189578 -3.457189 2.783855 -0.099500 0.043830 0.430110 -1.935793 -4.078653 -8.469774 -0.598126 4.993131 36.964591 3.822491 5.989745 9.458903 4.362393 3.823384 -12.907923 4.419484 -1.293368 35.315151 -5.294110 3.740680 -0.316000 -18.391649 -21.905421 7.036308 -10.609568 -14.775037 -0.533258 14.223736 -1.379799 -1.392608 -3.969315 3.399438 0.329810 0.041380 0.036740 0.045110 9.552501 23.435020 8.911703 -2.750016 0.078501 -13.786480 -109.338789 30.777326 -48.475582 2.313155 -2.024903 -0.017380 -0.255640 -0.025670 -0.170250 
0.965090 13.301510 -1.890220 -79.847116 29.751358 -45.122557 -15.778022 12.663108 5.188810 -6.752819 -10.394680 -35.867557 -14.001197 4.877722 10.988637 -0.322753 3.046377 3.400475 0.306420 -0.086190 0.430190 17.808268 -9.366249 2.911795 -2.455797 5.608279 -34.621403 -13.486239 0.449318 34.617377 -0.289475 -4.029176 2.597764 -0.087060 0.033060 0.452450 -1.966399 -4.271261 -8.448986 0.560800 5.081587 37.639091 3.408811 6.396737 10.157325 4.815806 2.179654 -13.027811 1.423749 0.032338 36.206632 -6.994770 5.090220 0.217380 -19.003470 -22.172295 6.726511 -12.570064 -16.073465 -1.392464 19.508090 0.570102 -1.520305 -4.002521 3.458593 0.283150 0.058100 0.069330 0.067600 9.284924 25.248138 9.481410 -2.870820 0.959336 -13.935829 -112.303115 29.626894 -50.364446 2.333333 -2.090081 0.034760 -0.277790 -0.057130 -0.130480 
0.986520 13.320110 -1.832960 -79.801288 28.260050 -45.737788 -15.785626 12.628255 4.842479 -7.679066 -9.119213 -34.254720 -12.178138 4.644099 10.237548 -0.334041 2.817334 3.487225 0.277210 -0.089680 0.423490 17.842585 -9.133787 3.329131 -0.295560 7.726977 -35.856661 -13.124912 0.700739 40.944327 -0.451708 -4.977876 2.279260 -0.093160 0.026020 0.467770 -2.062914 -4.123779 -8.523258 1.823923 5.516374 37.270890 2.615005 7.102502 11.058728 5.429742 1.861413 -13.071512 1.076223 0.425443 35.886709 -10.522610 7.239220 0.728420 -18.853567 -21.796709 6.214622 -13.434483 -16.832607 -1.905414 22.038576 0.020902 -1.731332 -4.040537 3.468075 0.235730 0.098600 0.071070 0.052180 7.798787 25.434048 10.028791 -1.503192 2.488402 -12.919492 -118.914963 29.385768 -57.671122 2.305410 -2.130084 0.052010 -0.301190 -0.057550 -0.127040 
0.979380 13.351320 -1.770930 -81.025186 28.013914 -46.405252 -15.771192 12.439723 4.610435 -7.653166 -8.474323 -34.366376 -10.593888 4.558948 10.544356 -0.359390 2.729172 3.537365 0.208980 -0.167180 0.391400 17.910155 -8.922150 3.720420 1.855526 9.439282 -37.406859 -11.649428 0.256988 44.514652 -0.519859 -5.531606 2.110689 -0.128290 0.075780 0.482120 -2.228740 -3.771238 -8.620725 2.885414 5.580685 36.483311 1.655415 7.364860 11.565642 5.752304 2.805383 -13.505214 3.127217 0.555264 35.030764 -12.276320 9.135940 2.772960 -18.144200 -22.084683 6.134834 -11.866971 -16.692420 -2.098517 21.406436 -1.619317 -1.890992 -4.107360 3.440649 0.194220 0.168450 0.026320 0.037730 6.342276 24.969608 10.696814 1.620376 3.765005 -11.742841 -124.794929 28.618244 -64.728993 2.264163 -2.175922 0.030580 -0.316020 -0.027030 -0.133670 
